<mxfile host="app.diagrams.net" modified="2024-05-21T07:22:48.838Z" agent="Mozilla/5.0 (Windows NT 10.0; Win64; x64) AppleWebKit/537.36 (KHTML, like Gecko) Chrome/124.0.0.0 Safari/537.36" etag="0CjmgWE3K0ANLsbmKDzX" version="24.3.1" type="device">
  <diagram name="Página-1" id="rwzK4Zk_4rLO1upC7aYd">
    <mxGraphModel dx="1434" dy="780" grid="1" gridSize="10" guides="1" tooltips="1" connect="1" arrows="1" fold="1" page="1" pageScale="1" pageWidth="1169" pageHeight="827" math="0" shadow="0">
      <root>
        <mxCell id="0" />
        <mxCell id="1" parent="0" />
        <mxCell id="11" value="Registro/Logeo" style="verticalAlign=bottom;endArrow=block;edgeStyle=elbowEdgeStyle;elbow=horizontal;curved=0;rounded=0;" parent="1" source="3" edge="1">
          <mxGeometry relative="1" as="geometry">
            <Array as="points">
              <mxPoint x="209" y="159" />
            </Array>
            <mxPoint x="74.5" y="159" as="targetPoint" />
          </mxGeometry>
        </mxCell>
        <mxCell id="12" value="Register" style="verticalAlign=bottom;endArrow=block;edgeStyle=elbowEdgeStyle;elbow=vertical;curved=0;rounded=0;" parent="1" target="3" edge="1">
          <mxGeometry relative="1" as="geometry">
            <Array as="points">
              <mxPoint x="209" y="240" />
            </Array>
            <mxPoint x="74.5" y="240" as="sourcePoint" />
          </mxGeometry>
        </mxCell>
        <mxCell id="13" value="Comprobar registro" style="verticalAlign=bottom;endArrow=block;edgeStyle=elbowEdgeStyle;elbow=vertical;curved=0;rounded=0;" parent="1" source="3" edge="1">
          <mxGeometry relative="1" as="geometry">
            <Array as="points">
              <mxPoint x="453.5" y="300" />
            </Array>
            <mxPoint x="326" y="300" as="sourcePoint" />
            <mxPoint x="640.5" y="300" as="targetPoint" />
          </mxGeometry>
        </mxCell>
        <mxCell id="14" value="Registro successful" style="verticalAlign=bottom;endArrow=block;edgeStyle=elbowEdgeStyle;elbow=vertical;curved=0;rounded=0;dashed=1;dashPattern=2 3;" parent="1" target="3" edge="1">
          <mxGeometry relative="1" as="geometry">
            <Array as="points">
              <mxPoint x="450" y="330" />
            </Array>
            <mxPoint x="640.5" y="330" as="sourcePoint" />
            <mxPoint x="322.5" y="330" as="targetPoint" />
          </mxGeometry>
        </mxCell>
        <mxCell id="16" value="Comprobar login" style="verticalAlign=bottom;endArrow=block;edgeStyle=elbowEdgeStyle;elbow=vertical;curved=0;rounded=0;" parent="1" source="3" edge="1">
          <mxGeometry relative="1" as="geometry">
            <Array as="points">
              <mxPoint x="450" y="511" />
            </Array>
            <mxPoint x="640.5" y="511" as="targetPoint" />
          </mxGeometry>
        </mxCell>
        <mxCell id="17" value="Login successful" style="verticalAlign=bottom;endArrow=block;edgeStyle=elbowEdgeStyle;elbow=vertical;curved=0;rounded=0;dashed=1;dashPattern=2 3;" parent="1" target="3" edge="1">
          <mxGeometry relative="1" as="geometry">
            <Array as="points">
              <mxPoint x="450" y="563" />
            </Array>
            <mxPoint x="640.5" y="563" as="sourcePoint" />
          </mxGeometry>
        </mxCell>
        <mxCell id="19" value="Pedir lista de bares" style="verticalAlign=bottom;endArrow=block;edgeStyle=elbowEdgeStyle;elbow=vertical;curved=0;rounded=0;" parent="1" source="3" edge="1">
          <mxGeometry relative="1" as="geometry">
            <Array as="points">
              <mxPoint x="450" y="713" />
            </Array>
            <mxPoint x="322.5" y="713" as="sourcePoint" />
            <mxPoint x="640.5" y="713" as="targetPoint" />
          </mxGeometry>
        </mxCell>
        <mxCell id="20" value="Devuelve lista de bares" style="verticalAlign=bottom;endArrow=block;edgeStyle=elbowEdgeStyle;elbow=vertical;curved=0;rounded=0;dashed=1;dashPattern=2 3;" parent="1" target="3" edge="1">
          <mxGeometry relative="1" as="geometry">
            <Array as="points">
              <mxPoint x="450" y="765" />
            </Array>
            <mxPoint x="640.5" y="765" as="sourcePoint" />
            <mxPoint x="322.5" y="765" as="targetPoint" />
          </mxGeometry>
        </mxCell>
        <mxCell id="23" value="Pedir lista de reservas" style="verticalAlign=bottom;endArrow=block;edgeStyle=elbowEdgeStyle;elbow=vertical;curved=0;rounded=0;" parent="1" source="3" edge="1">
          <mxGeometry relative="1" as="geometry">
            <Array as="points">
              <mxPoint x="450" y="921" />
            </Array>
            <mxPoint x="322.5" y="921" as="sourcePoint" />
            <mxPoint x="640.5" y="921" as="targetPoint" />
          </mxGeometry>
        </mxCell>
        <mxCell id="24" value="Devuelve lista de reservas" style="verticalAlign=bottom;endArrow=block;edgeStyle=elbowEdgeStyle;elbow=vertical;curved=0;rounded=0;dashed=1;dashPattern=2 3;" parent="1" target="3" edge="1">
          <mxGeometry relative="1" as="geometry">
            <Array as="points">
              <mxPoint x="450" y="973" />
            </Array>
            <mxPoint x="640.5" y="973" as="sourcePoint" />
            <mxPoint x="322.5" y="973" as="targetPoint" />
          </mxGeometry>
        </mxCell>
        <mxCell id="qBHR2o95Cr0Uf-2VlcTb-29" value="Error registro" style="verticalAlign=bottom;endArrow=block;edgeStyle=elbowEdgeStyle;elbow=vertical;curved=0;rounded=0;dashed=1;dashPattern=2 3;" parent="1" target="3" edge="1">
          <mxGeometry relative="1" as="geometry">
            <Array as="points">
              <mxPoint x="447.5" y="390" />
            </Array>
            <mxPoint x="640.5" y="390" as="sourcePoint" />
            <mxPoint x="320" y="390" as="targetPoint" />
          </mxGeometry>
        </mxCell>
        <mxCell id="qBHR2o95Cr0Uf-2VlcTb-30" value="Añadir bar" style="verticalAlign=bottom;endArrow=block;edgeStyle=elbowEdgeStyle;elbow=horizontal;curved=0;rounded=0;" parent="1" target="3" edge="1">
          <mxGeometry relative="1" as="geometry">
            <Array as="points">
              <mxPoint x="204.5" y="1130" />
            </Array>
            <mxPoint x="74.5" y="1130" as="sourcePoint" />
            <mxPoint x="318" y="1130" as="targetPoint" />
            <mxPoint as="offset" />
          </mxGeometry>
        </mxCell>
        <mxCell id="qBHR2o95Cr0Uf-2VlcTb-31" value="Añadir bar" style="verticalAlign=bottom;endArrow=block;edgeStyle=elbowEdgeStyle;elbow=vertical;curved=0;rounded=0;" parent="1" source="3" edge="1">
          <mxGeometry relative="1" as="geometry">
            <Array as="points">
              <mxPoint x="452.5" y="1160" />
            </Array>
            <mxPoint x="318" y="1160" as="sourcePoint" />
            <mxPoint x="640.5" y="1160" as="targetPoint" />
          </mxGeometry>
        </mxCell>
        <mxCell id="qBHR2o95Cr0Uf-2VlcTb-32" value="Borrar bar" style="verticalAlign=bottom;endArrow=block;edgeStyle=elbowEdgeStyle;elbow=horizontal;curved=0;rounded=0;" parent="1" target="3" edge="1">
          <mxGeometry relative="1" as="geometry">
            <Array as="points">
              <mxPoint x="214.5" y="1250" />
            </Array>
            <mxPoint x="74.5" y="1250" as="sourcePoint" />
            <mxPoint x="328" y="1250" as="targetPoint" />
          </mxGeometry>
        </mxCell>
        <mxCell id="qBHR2o95Cr0Uf-2VlcTb-33" value="Borrar bar" style="verticalAlign=bottom;endArrow=block;edgeStyle=elbowEdgeStyle;elbow=vertical;curved=0;rounded=0;" parent="1" source="3" edge="1">
          <mxGeometry relative="1" as="geometry">
            <Array as="points">
              <mxPoint x="452.5" y="1290" />
            </Array>
            <mxPoint x="318" y="1290" as="sourcePoint" />
            <mxPoint x="640.5" y="1290" as="targetPoint" />
          </mxGeometry>
        </mxCell>
        <mxCell id="qBHR2o95Cr0Uf-2VlcTb-35" value="Añadir reserva" style="verticalAlign=bottom;endArrow=block;edgeStyle=elbowEdgeStyle;elbow=vertical;curved=0;rounded=0;" parent="1" source="3" edge="1">
          <mxGeometry relative="1" as="geometry">
            <Array as="points">
              <mxPoint x="446.5" y="1400" />
            </Array>
            <mxPoint x="312" y="1400" as="sourcePoint" />
            <mxPoint x="640.5" y="1400" as="targetPoint" />
          </mxGeometry>
        </mxCell>
        <mxCell id="o3OVM2CxOp8buC_yMI5R-192" value="Comprobar registro" style="verticalAlign=bottom;endArrow=block;edgeStyle=elbowEdgeStyle;elbow=vertical;curved=0;rounded=0;" edge="1" parent="1" source="o3OVM2CxOp8buC_yMI5R-198" target="o3OVM2CxOp8buC_yMI5R-200">
          <mxGeometry relative="1" as="geometry">
            <Array as="points">
              <mxPoint x="509" y="240" />
            </Array>
            <mxPoint x="390" y="240" as="sourcePoint" />
            <mxPoint x="696" y="240" as="targetPoint" />
          </mxGeometry>
        </mxCell>
        <mxCell id="o3OVM2CxOp8buC_yMI5R-193" value="Registro successful" style="verticalAlign=bottom;endArrow=block;edgeStyle=elbowEdgeStyle;elbow=vertical;curved=0;rounded=0;dashed=1;dashPattern=2 3;" edge="1" parent="1" source="o3OVM2CxOp8buC_yMI5R-201" target="o3OVM2CxOp8buC_yMI5R-200">
          <mxGeometry relative="1" as="geometry">
            <Array as="points">
              <mxPoint x="805.5" y="300" />
            </Array>
            <mxPoint x="974.5" y="300" as="sourcePoint" />
            <mxPoint x="694.5" y="300" as="targetPoint" />
          </mxGeometry>
        </mxCell>
        <mxCell id="o3OVM2CxOp8buC_yMI5R-194" value="alt" style="shape=umlFrame;dashed=1;pointerEvents=0;dropTarget=0;strokeColor=#B3B3B3;height=20;width=30" vertex="1" parent="1">
          <mxGeometry x="110" y="280" width="1030" height="200" as="geometry" />
        </mxCell>
        <mxCell id="o3OVM2CxOp8buC_yMI5R-195" value="[Registro exitoso]    " style="text;strokeColor=none;fillColor=none;align=center;verticalAlign=middle;whiteSpace=wrap;" vertex="1" parent="o3OVM2CxOp8buC_yMI5R-194">
          <mxGeometry x="-103" width="1133" height="9.9" as="geometry" />
        </mxCell>
        <mxCell id="o3OVM2CxOp8buC_yMI5R-196" value="[Registro fallido]                                        " style="shape=line;dashed=1;whiteSpace=wrap;verticalAlign=top;labelPosition=center;verticalLabelPosition=middle;align=center;strokeColor=#B3B3B3;" vertex="1" parent="o3OVM2CxOp8buC_yMI5R-194">
          <mxGeometry x="8.583333333333332" y="108.91" width="1021.4166666666666" height="1.98" as="geometry" />
        </mxCell>
        <mxCell id="o3OVM2CxOp8buC_yMI5R-197" value="Invi&lt;span style=&quot;background-color: initial;&quot;&gt;tado&lt;/span&gt;" style="rounded=0;whiteSpace=wrap;html=1;" vertex="1" parent="1">
          <mxGeometry x="60" y="110" width="120" height="60" as="geometry" />
        </mxCell>
        <mxCell id="o3OVM2CxOp8buC_yMI5R-198" value="BARteca" style="shape=umlLifeline;perimeter=lifelinePerimeter;whiteSpace=wrap;container=1;dropTarget=0;collapsible=0;recursiveResize=0;outlineConnect=0;portConstraint=eastwest;newEdgeStyle={&quot;edgeStyle&quot;:&quot;elbowEdgeStyle&quot;,&quot;elbow&quot;:&quot;vertical&quot;,&quot;curved&quot;:0,&quot;rounded&quot;:0};size=65;" vertex="1" parent="1">
          <mxGeometry x="230" y="110" width="150" height="420" as="geometry" />
        </mxCell>
        <mxCell id="o3OVM2CxOp8buC_yMI5R-199" value="" style="endArrow=none;dashed=1;html=1;rounded=0;" edge="1" parent="1" target="o3OVM2CxOp8buC_yMI5R-197">
          <mxGeometry width="50" height="50" relative="1" as="geometry">
            <mxPoint x="120" y="540" as="sourcePoint" />
            <mxPoint x="-10" y="200" as="targetPoint" />
          </mxGeometry>
        </mxCell>
        <mxCell id="o3OVM2CxOp8buC_yMI5R-200" value="API" style="shape=umlLifeline;perimeter=lifelinePerimeter;whiteSpace=wrap;container=1;dropTarget=0;collapsible=0;recursiveResize=0;outlineConnect=0;portConstraint=eastwest;newEdgeStyle={&quot;edgeStyle&quot;:&quot;elbowEdgeStyle&quot;,&quot;elbow&quot;:&quot;vertical&quot;,&quot;curved&quot;:0,&quot;rounded&quot;:0};size=65;" vertex="1" parent="1">
          <mxGeometry x="470" y="110" width="150" height="420" as="geometry" />
        </mxCell>
        <mxCell id="o3OVM2CxOp8buC_yMI5R-201" value="BBDD" style="shape=umlLifeline;perimeter=lifelinePerimeter;whiteSpace=wrap;container=1;dropTarget=0;collapsible=0;recursiveResize=0;outlineConnect=0;portConstraint=eastwest;newEdgeStyle={&quot;edgeStyle&quot;:&quot;elbowEdgeStyle&quot;,&quot;elbow&quot;:&quot;vertical&quot;,&quot;curved&quot;:0,&quot;rounded&quot;:0};size=65;" vertex="1" parent="1">
          <mxGeometry x="760" y="110" width="150" height="420" as="geometry" />
        </mxCell>
        <mxCell id="o3OVM2CxOp8buC_yMI5R-202" value="Register" style="verticalAlign=bottom;endArrow=block;edgeStyle=elbowEdgeStyle;elbow=vertical;curved=0;rounded=0;" edge="1" parent="1" target="o3OVM2CxOp8buC_yMI5R-198">
          <mxGeometry relative="1" as="geometry">
            <Array as="points">
              <mxPoint x="254" y="220" />
            </Array>
            <mxPoint x="120" y="220" as="sourcePoint" />
            <mxPoint x="380" y="220" as="targetPoint" />
          </mxGeometry>
        </mxCell>
        <mxCell id="o3OVM2CxOp8buC_yMI5R-203" value="Comprobar registro" style="verticalAlign=bottom;endArrow=block;edgeStyle=elbowEdgeStyle;elbow=vertical;curved=0;rounded=0;" edge="1" parent="1" source="o3OVM2CxOp8buC_yMI5R-200" target="o3OVM2CxOp8buC_yMI5R-201">
          <mxGeometry relative="1" as="geometry">
            <Array as="points">
              <mxPoint x="804" y="260" />
            </Array>
            <mxPoint x="680" y="260" as="sourcePoint" />
            <mxPoint x="990" y="260" as="targetPoint" />
          </mxGeometry>
        </mxCell>
        <mxCell id="o3OVM2CxOp8buC_yMI5R-204" value="Registro successful" style="verticalAlign=bottom;endArrow=block;edgeStyle=elbowEdgeStyle;elbow=vertical;curved=0;rounded=0;dashed=1;dashPattern=2 3;" edge="1" parent="1" source="o3OVM2CxOp8buC_yMI5R-200" target="o3OVM2CxOp8buC_yMI5R-198">
          <mxGeometry relative="1" as="geometry">
            <Array as="points">
              <mxPoint x="501" y="319.5" />
            </Array>
            <mxPoint x="670" y="319.5" as="sourcePoint" />
            <mxPoint x="390" y="319.5" as="targetPoint" />
          </mxGeometry>
        </mxCell>
        <mxCell id="o3OVM2CxOp8buC_yMI5R-205" value="Error registro" style="verticalAlign=bottom;endArrow=block;edgeStyle=elbowEdgeStyle;elbow=vertical;curved=0;rounded=0;dashed=1;dashPattern=2 3;" edge="1" parent="1">
          <mxGeometry relative="1" as="geometry">
            <Array as="points">
              <mxPoint x="830" y="440" />
            </Array>
            <mxPoint x="820" y="440" as="sourcePoint" />
            <mxPoint x="544.5" y="440" as="targetPoint" />
          </mxGeometry>
        </mxCell>
        <mxCell id="o3OVM2CxOp8buC_yMI5R-206" value="Error registro" style="verticalAlign=bottom;endArrow=block;edgeStyle=elbowEdgeStyle;elbow=vertical;curved=0;rounded=0;dashed=1;dashPattern=2 3;" edge="1" parent="1" source="o3OVM2CxOp8buC_yMI5R-200" target="o3OVM2CxOp8buC_yMI5R-198">
          <mxGeometry relative="1" as="geometry">
            <Array as="points">
              <mxPoint x="502.5" y="440" />
            </Array>
            <mxPoint x="696" y="440" as="sourcePoint" />
            <mxPoint x="390" y="440" as="targetPoint" />
          </mxGeometry>
        </mxCell>
        <mxCell id="o3OVM2CxOp8buC_yMI5R-207" value="New Instance" style="verticalAlign=bottom;endArrow=none;edgeStyle=elbowEdgeStyle;elbow=vertical;curved=0;rounded=0;dashed=1;dashPattern=2 3;startArrow=block;startFill=1;endFill=0;" edge="1" parent="1" source="o3OVM2CxOp8buC_yMI5R-208" target="o3OVM2CxOp8buC_yMI5R-201">
          <mxGeometry relative="1" as="geometry">
            <Array as="points">
              <mxPoint x="1071" y="340" />
            </Array>
            <mxPoint x="1230" y="340" as="sourcePoint" />
            <mxPoint x="960" y="340" as="targetPoint" />
          </mxGeometry>
        </mxCell>
        <mxCell id="o3OVM2CxOp8buC_yMI5R-208" value="Usuario" style="shape=umlLifeline;perimeter=lifelinePerimeter;whiteSpace=wrap;container=1;dropTarget=0;collapsible=0;recursiveResize=0;outlineConnect=0;portConstraint=eastwest;newEdgeStyle={&quot;edgeStyle&quot;:&quot;elbowEdgeStyle&quot;,&quot;elbow&quot;:&quot;vertical&quot;,&quot;curved&quot;:0,&quot;rounded&quot;:0};size=65;" vertex="1" parent="1">
          <mxGeometry x="970" y="110" width="150" height="420" as="geometry" />
        </mxCell>
        <mxCell id="o3OVM2CxOp8buC_yMI5R-209" value="&lt;h1&gt;&lt;i&gt;&lt;u&gt;DIAGRAMA REGISTRO&lt;/u&gt;&lt;/i&gt;&lt;/h1&gt;" style="text;align=center;fontStyle=1;verticalAlign=middle;spacingLeft=3;spacingRight=3;strokeColor=none;rotatable=0;points=[[0,0.5],[1,0.5]];portConstraint=eastwest;html=1;" vertex="1" parent="1">
          <mxGeometry x="110" y="40" width="160" height="26" as="geometry" />
        </mxCell>
        <mxCell id="o3OVM2CxOp8buC_yMI5R-210" value="BARteca" style="shape=umlLifeline;perimeter=lifelinePerimeter;whiteSpace=wrap;container=1;dropTarget=0;collapsible=0;recursiveResize=0;outlineConnect=0;portConstraint=eastwest;newEdgeStyle={&quot;edgeStyle&quot;:&quot;elbowEdgeStyle&quot;,&quot;elbow&quot;:&quot;vertical&quot;,&quot;curved&quot;:0,&quot;rounded&quot;:0};size=65;" vertex="1" parent="1">
          <mxGeometry x="1450" y="110" width="150" height="420" as="geometry" />
        </mxCell>
        <mxCell id="o3OVM2CxOp8buC_yMI5R-211" value="API" style="shape=umlLifeline;perimeter=lifelinePerimeter;whiteSpace=wrap;container=1;dropTarget=0;collapsible=0;recursiveResize=0;outlineConnect=0;portConstraint=eastwest;newEdgeStyle={&quot;edgeStyle&quot;:&quot;elbowEdgeStyle&quot;,&quot;elbow&quot;:&quot;vertical&quot;,&quot;curved&quot;:0,&quot;rounded&quot;:0};size=65;" vertex="1" parent="1">
          <mxGeometry x="1760" y="110" width="150" height="420" as="geometry" />
        </mxCell>
        <mxCell id="o3OVM2CxOp8buC_yMI5R-212" value="BBDD" style="shape=umlLifeline;perimeter=lifelinePerimeter;whiteSpace=wrap;container=1;dropTarget=0;collapsible=0;recursiveResize=0;outlineConnect=0;portConstraint=eastwest;newEdgeStyle={&quot;edgeStyle&quot;:&quot;elbowEdgeStyle&quot;,&quot;elbow&quot;:&quot;vertical&quot;,&quot;curved&quot;:0,&quot;rounded&quot;:0};size=65;" vertex="1" parent="1">
          <mxGeometry x="2040" y="110" width="150" height="420" as="geometry" />
        </mxCell>
        <mxCell id="o3OVM2CxOp8buC_yMI5R-213" value="&lt;h1&gt;&lt;i&gt;&lt;u&gt;DIAGRAMA LOGEO&lt;/u&gt;&lt;/i&gt;&lt;/h1&gt;" style="text;align=center;fontStyle=1;verticalAlign=middle;spacingLeft=3;spacingRight=3;strokeColor=none;rotatable=0;points=[[0,0.5],[1,0.5]];portConstraint=eastwest;html=1;" vertex="1" parent="1">
          <mxGeometry x="1230" y="38" width="160" height="26" as="geometry" />
        </mxCell>
        <mxCell id="o3OVM2CxOp8buC_yMI5R-214" value="Login" style="verticalAlign=bottom;endArrow=block;edgeStyle=elbowEdgeStyle;elbow=vertical;curved=0;rounded=0;" edge="1" parent="1" source="o3OVM2CxOp8buC_yMI5R-220" target="o3OVM2CxOp8buC_yMI5R-210">
          <mxGeometry relative="1" as="geometry">
            <Array as="points">
              <mxPoint x="1404.5" y="210" />
            </Array>
            <mxPoint x="1270" y="210" as="sourcePoint" />
            <mxPoint x="1530.5" y="210" as="targetPoint" />
          </mxGeometry>
        </mxCell>
        <mxCell id="o3OVM2CxOp8buC_yMI5R-215" value="Comprobar login" style="verticalAlign=bottom;endArrow=block;edgeStyle=elbowEdgeStyle;elbow=vertical;curved=0;rounded=0;" edge="1" parent="1" source="o3OVM2CxOp8buC_yMI5R-210" target="o3OVM2CxOp8buC_yMI5R-211">
          <mxGeometry relative="1" as="geometry">
            <Array as="points">
              <mxPoint x="1645" y="230" />
            </Array>
            <mxPoint x="1530" y="230" as="sourcePoint" />
            <mxPoint x="1836" y="230" as="targetPoint" />
          </mxGeometry>
        </mxCell>
        <mxCell id="o3OVM2CxOp8buC_yMI5R-216" value="Login successful" style="verticalAlign=bottom;endArrow=block;edgeStyle=elbowEdgeStyle;elbow=vertical;curved=0;rounded=0;dashed=1;dashPattern=2 3;" edge="1" parent="1" source="o3OVM2CxOp8buC_yMI5R-212" target="o3OVM2CxOp8buC_yMI5R-211">
          <mxGeometry relative="1" as="geometry">
            <Array as="points">
              <mxPoint x="1935" y="450" />
            </Array>
            <mxPoint x="2126" y="450" as="sourcePoint" />
            <mxPoint x="1820" y="450" as="targetPoint" />
          </mxGeometry>
        </mxCell>
        <mxCell id="o3OVM2CxOp8buC_yMI5R-217" value="alt" style="shape=umlFrame;dashed=1;pointerEvents=0;dropTarget=0;strokeColor=#B3B3B3;height=20;width=30" vertex="1" parent="1">
          <mxGeometry x="1215" y="270" width="985" height="240" as="geometry" />
        </mxCell>
        <mxCell id="o3OVM2CxOp8buC_yMI5R-218" value="[Usuario no registrado]" style="text;strokeColor=none;fillColor=none;align=center;verticalAlign=middle;whiteSpace=wrap;" vertex="1" parent="o3OVM2CxOp8buC_yMI5R-217">
          <mxGeometry width="985" height="11.88" as="geometry" />
        </mxCell>
        <mxCell id="o3OVM2CxOp8buC_yMI5R-219" value="[User is registered]" style="shape=line;dashed=1;whiteSpace=wrap;verticalAlign=top;labelPosition=center;verticalLabelPosition=middle;align=center;strokeColor=#B3B3B3;" vertex="1" parent="o3OVM2CxOp8buC_yMI5R-217">
          <mxGeometry y="130.69306930693068" width="985" height="2.3762376237623757" as="geometry" />
        </mxCell>
        <mxCell id="o3OVM2CxOp8buC_yMI5R-220" value="Usuario" style="shape=umlLifeline;perimeter=lifelinePerimeter;whiteSpace=wrap;container=1;dropTarget=0;collapsible=0;recursiveResize=0;outlineConnect=0;portConstraint=eastwest;newEdgeStyle={&quot;edgeStyle&quot;:&quot;elbowEdgeStyle&quot;,&quot;elbow&quot;:&quot;vertical&quot;,&quot;curved&quot;:0,&quot;rounded&quot;:0};size=65;" vertex="1" parent="1">
          <mxGeometry x="1200" y="110" width="150" height="420" as="geometry" />
        </mxCell>
        <mxCell id="o3OVM2CxOp8buC_yMI5R-221" value="Comprobar login" style="verticalAlign=bottom;endArrow=block;edgeStyle=elbowEdgeStyle;elbow=vertical;curved=0;rounded=0;" edge="1" parent="1" source="o3OVM2CxOp8buC_yMI5R-211" target="o3OVM2CxOp8buC_yMI5R-212">
          <mxGeometry relative="1" as="geometry">
            <Array as="points">
              <mxPoint x="1960" y="250" />
            </Array>
            <mxPoint x="1840" y="250" as="sourcePoint" />
            <mxPoint x="2150" y="250" as="targetPoint" />
          </mxGeometry>
        </mxCell>
        <mxCell id="o3OVM2CxOp8buC_yMI5R-222" value="Login Error" style="verticalAlign=bottom;endArrow=block;edgeStyle=elbowEdgeStyle;elbow=vertical;curved=0;rounded=0;dashed=1;dashPattern=2 3;exitX=0.467;exitY=0.5;exitDx=0;exitDy=0;exitPerimeter=0;" edge="1" parent="1" source="o3OVM2CxOp8buC_yMI5R-212" target="o3OVM2CxOp8buC_yMI5R-211">
          <mxGeometry relative="1" as="geometry">
            <Array as="points">
              <mxPoint x="1955" y="320" />
            </Array>
            <mxPoint x="2146" y="320" as="sourcePoint" />
            <mxPoint x="1840" y="320" as="targetPoint" />
          </mxGeometry>
        </mxCell>
        <mxCell id="o3OVM2CxOp8buC_yMI5R-223" value="Login successful" style="verticalAlign=bottom;endArrow=block;edgeStyle=elbowEdgeStyle;elbow=vertical;curved=0;rounded=0;dashed=1;dashPattern=2 3;" edge="1" parent="1" source="o3OVM2CxOp8buC_yMI5R-211" target="o3OVM2CxOp8buC_yMI5R-210">
          <mxGeometry relative="1" as="geometry">
            <Array as="points">
              <mxPoint x="1645" y="480" />
            </Array>
            <mxPoint x="1834.5" y="480" as="sourcePoint" />
            <mxPoint x="1524.5" y="480" as="targetPoint" />
          </mxGeometry>
        </mxCell>
        <mxCell id="o3OVM2CxOp8buC_yMI5R-224" value="Login Error" style="verticalAlign=bottom;endArrow=block;edgeStyle=elbowEdgeStyle;elbow=vertical;curved=0;rounded=0;dashed=1;dashPattern=2 3;" edge="1" parent="1" source="o3OVM2CxOp8buC_yMI5R-211" target="o3OVM2CxOp8buC_yMI5R-210">
          <mxGeometry relative="1" as="geometry">
            <Array as="points">
              <mxPoint x="1670" y="340" />
            </Array>
            <mxPoint x="1825" y="340" as="sourcePoint" />
            <mxPoint x="1550" y="340" as="targetPoint" />
          </mxGeometry>
        </mxCell>
        <mxCell id="o3OVM2CxOp8buC_yMI5R-225" value="BARteca" style="shape=umlLifeline;perimeter=lifelinePerimeter;whiteSpace=wrap;container=1;dropTarget=0;collapsible=0;recursiveResize=0;outlineConnect=0;portConstraint=eastwest;newEdgeStyle={&quot;edgeStyle&quot;:&quot;elbowEdgeStyle&quot;,&quot;elbow&quot;:&quot;vertical&quot;,&quot;curved&quot;:0,&quot;rounded&quot;:0};size=65;" vertex="1" parent="1">
          <mxGeometry x="310" y="1200" width="150" height="420" as="geometry" />
        </mxCell>
        <mxCell id="o3OVM2CxOp8buC_yMI5R-226" value="API" style="shape=umlLifeline;perimeter=lifelinePerimeter;whiteSpace=wrap;container=1;dropTarget=0;collapsible=0;recursiveResize=0;outlineConnect=0;portConstraint=eastwest;newEdgeStyle={&quot;edgeStyle&quot;:&quot;elbowEdgeStyle&quot;,&quot;elbow&quot;:&quot;vertical&quot;,&quot;curved&quot;:0,&quot;rounded&quot;:0};size=65;" vertex="1" parent="1">
          <mxGeometry x="620" y="1200" width="150" height="420" as="geometry" />
        </mxCell>
        <mxCell id="o3OVM2CxOp8buC_yMI5R-227" value="BBDD" style="shape=umlLifeline;perimeter=lifelinePerimeter;whiteSpace=wrap;container=1;dropTarget=0;collapsible=0;recursiveResize=0;outlineConnect=0;portConstraint=eastwest;newEdgeStyle={&quot;edgeStyle&quot;:&quot;elbowEdgeStyle&quot;,&quot;elbow&quot;:&quot;vertical&quot;,&quot;curved&quot;:0,&quot;rounded&quot;:0};size=65;" vertex="1" parent="1">
          <mxGeometry x="900" y="1200" width="150" height="420" as="geometry" />
        </mxCell>
        <mxCell id="o3OVM2CxOp8buC_yMI5R-228" value="Ver listado de bares" style="verticalAlign=bottom;endArrow=block;edgeStyle=elbowEdgeStyle;elbow=vertical;curved=0;rounded=0;" edge="1" parent="1" source="o3OVM2CxOp8buC_yMI5R-230" target="o3OVM2CxOp8buC_yMI5R-225">
          <mxGeometry relative="1" as="geometry">
            <Array as="points">
              <mxPoint x="264.5" y="1300" />
            </Array>
            <mxPoint x="130" y="1300" as="sourcePoint" />
            <mxPoint x="390.5" y="1300" as="targetPoint" />
          </mxGeometry>
        </mxCell>
        <mxCell id="o3OVM2CxOp8buC_yMI5R-229" value="Pedir listado de bares" style="verticalAlign=bottom;endArrow=block;edgeStyle=elbowEdgeStyle;elbow=vertical;curved=0;rounded=0;" edge="1" parent="1" source="o3OVM2CxOp8buC_yMI5R-225" target="o3OVM2CxOp8buC_yMI5R-226">
          <mxGeometry relative="1" as="geometry">
            <Array as="points">
              <mxPoint x="505" y="1320" />
            </Array>
            <mxPoint x="390" y="1320" as="sourcePoint" />
            <mxPoint x="696" y="1320" as="targetPoint" />
          </mxGeometry>
        </mxCell>
        <mxCell id="o3OVM2CxOp8buC_yMI5R-230" value="Usuario" style="shape=umlLifeline;perimeter=lifelinePerimeter;whiteSpace=wrap;container=1;dropTarget=0;collapsible=0;recursiveResize=0;outlineConnect=0;portConstraint=eastwest;newEdgeStyle={&quot;edgeStyle&quot;:&quot;elbowEdgeStyle&quot;,&quot;elbow&quot;:&quot;vertical&quot;,&quot;curved&quot;:0,&quot;rounded&quot;:0};size=65;" vertex="1" parent="1">
          <mxGeometry x="60" y="1200" width="150" height="420" as="geometry" />
        </mxCell>
        <mxCell id="o3OVM2CxOp8buC_yMI5R-231" value="Pedir listado de bares" style="verticalAlign=bottom;endArrow=block;edgeStyle=elbowEdgeStyle;elbow=vertical;curved=0;rounded=0;" edge="1" parent="1" source="o3OVM2CxOp8buC_yMI5R-226" target="o3OVM2CxOp8buC_yMI5R-227">
          <mxGeometry relative="1" as="geometry">
            <Array as="points">
              <mxPoint x="820" y="1340" />
            </Array>
            <mxPoint x="700" y="1340" as="sourcePoint" />
            <mxPoint x="1010" y="1340" as="targetPoint" />
          </mxGeometry>
        </mxCell>
        <mxCell id="o3OVM2CxOp8buC_yMI5R-232" value="Devuelve listado de bares" style="verticalAlign=bottom;endArrow=block;edgeStyle=elbowEdgeStyle;elbow=vertical;curved=0;rounded=0;dashed=1;dashPattern=2 3;exitX=0.467;exitY=0.5;exitDx=0;exitDy=0;exitPerimeter=0;" edge="1" parent="1" source="o3OVM2CxOp8buC_yMI5R-227" target="o3OVM2CxOp8buC_yMI5R-226">
          <mxGeometry relative="1" as="geometry">
            <Array as="points">
              <mxPoint x="815" y="1410" />
            </Array>
            <mxPoint x="1006" y="1410" as="sourcePoint" />
            <mxPoint x="700" y="1410" as="targetPoint" />
          </mxGeometry>
        </mxCell>
        <mxCell id="o3OVM2CxOp8buC_yMI5R-233" value="Devuelve listado de bares" style="verticalAlign=bottom;endArrow=block;edgeStyle=elbowEdgeStyle;elbow=vertical;curved=0;rounded=0;dashed=1;dashPattern=2 3;" edge="1" parent="1" source="o3OVM2CxOp8buC_yMI5R-226" target="o3OVM2CxOp8buC_yMI5R-225">
          <mxGeometry relative="1" as="geometry">
            <Array as="points">
              <mxPoint x="530" y="1430" />
            </Array>
            <mxPoint x="685" y="1430" as="sourcePoint" />
            <mxPoint x="410" y="1430" as="targetPoint" />
          </mxGeometry>
        </mxCell>
        <mxCell id="o3OVM2CxOp8buC_yMI5R-234" value="&lt;h1&gt;&lt;i&gt;&lt;u&gt;DIAGRAMAS BARES&lt;/u&gt;&lt;/i&gt;&lt;/h1&gt;" style="text;align=center;fontStyle=1;verticalAlign=middle;spacingLeft=3;spacingRight=3;strokeColor=none;rotatable=0;points=[[0,0.5],[1,0.5]];portConstraint=eastwest;html=1;" vertex="1" parent="1">
          <mxGeometry x="100" y="1110" width="160" height="26" as="geometry" />
        </mxCell>
        <mxCell id="o3OVM2CxOp8buC_yMI5R-235" value="Mostrar lista de bares" style="verticalAlign=bottom;endArrow=block;edgeStyle=elbowEdgeStyle;elbow=vertical;curved=0;rounded=0;dashed=1;dashPattern=2 3;" edge="1" parent="1" source="o3OVM2CxOp8buC_yMI5R-225" target="o3OVM2CxOp8buC_yMI5R-230">
          <mxGeometry relative="1" as="geometry">
            <Array as="points">
              <mxPoint x="254.5" y="1470" />
            </Array>
            <mxPoint x="380.5" y="1470" as="sourcePoint" />
            <mxPoint x="120" y="1470" as="targetPoint" />
          </mxGeometry>
        </mxCell>
        <mxCell id="o3OVM2CxOp8buC_yMI5R-236" value="&lt;h3&gt;-&amp;nbsp;&lt;i style=&quot;text-decoration-line: underline;&quot;&gt;Listado de bares&lt;/i&gt;&lt;/h3&gt;" style="text;align=center;fontStyle=1;verticalAlign=middle;spacingLeft=3;spacingRight=3;strokeColor=none;rotatable=0;points=[[0,0.5],[1,0.5]];portConstraint=eastwest;html=1;" vertex="1" parent="1">
          <mxGeometry x="40" y="1160" width="160" height="26" as="geometry" />
        </mxCell>
        <mxCell id="o3OVM2CxOp8buC_yMI5R-237" value="BARteca" style="shape=umlLifeline;perimeter=lifelinePerimeter;whiteSpace=wrap;container=1;dropTarget=0;collapsible=0;recursiveResize=0;outlineConnect=0;portConstraint=eastwest;newEdgeStyle={&quot;edgeStyle&quot;:&quot;elbowEdgeStyle&quot;,&quot;elbow&quot;:&quot;vertical&quot;,&quot;curved&quot;:0,&quot;rounded&quot;:0};size=65;" vertex="1" parent="1">
          <mxGeometry x="310" y="1722" width="150" height="250" as="geometry" />
        </mxCell>
        <mxCell id="o3OVM2CxOp8buC_yMI5R-238" value="API" style="shape=umlLifeline;perimeter=lifelinePerimeter;whiteSpace=wrap;container=1;dropTarget=0;collapsible=0;recursiveResize=0;outlineConnect=0;portConstraint=eastwest;newEdgeStyle={&quot;edgeStyle&quot;:&quot;elbowEdgeStyle&quot;,&quot;elbow&quot;:&quot;vertical&quot;,&quot;curved&quot;:0,&quot;rounded&quot;:0};size=65;" vertex="1" parent="1">
          <mxGeometry x="620" y="1722" width="150" height="250" as="geometry" />
        </mxCell>
        <mxCell id="o3OVM2CxOp8buC_yMI5R-239" value="BBDD" style="shape=umlLifeline;perimeter=lifelinePerimeter;whiteSpace=wrap;container=1;dropTarget=0;collapsible=0;recursiveResize=0;outlineConnect=0;portConstraint=eastwest;newEdgeStyle={&quot;edgeStyle&quot;:&quot;elbowEdgeStyle&quot;,&quot;elbow&quot;:&quot;vertical&quot;,&quot;curved&quot;:0,&quot;rounded&quot;:0};size=65;" vertex="1" parent="1">
          <mxGeometry x="900" y="1722" width="150" height="250" as="geometry" />
        </mxCell>
        <mxCell id="o3OVM2CxOp8buC_yMI5R-240" value="Añadir bar" style="verticalAlign=bottom;endArrow=block;edgeStyle=elbowEdgeStyle;elbow=vertical;curved=0;rounded=0;" edge="1" parent="1" source="o3OVM2CxOp8buC_yMI5R-242" target="o3OVM2CxOp8buC_yMI5R-237">
          <mxGeometry relative="1" as="geometry">
            <Array as="points">
              <mxPoint x="264.5" y="1822" />
            </Array>
            <mxPoint x="130" y="1822" as="sourcePoint" />
            <mxPoint x="390.5" y="1822" as="targetPoint" />
          </mxGeometry>
        </mxCell>
        <mxCell id="o3OVM2CxOp8buC_yMI5R-241" value="Crear bar" style="verticalAlign=bottom;endArrow=block;edgeStyle=elbowEdgeStyle;elbow=horizontal;curved=0;rounded=0;" edge="1" parent="1" source="o3OVM2CxOp8buC_yMI5R-237" target="o3OVM2CxOp8buC_yMI5R-238">
          <mxGeometry relative="1" as="geometry">
            <Array as="points">
              <mxPoint x="505" y="1842" />
            </Array>
            <mxPoint x="390" y="1842" as="sourcePoint" />
            <mxPoint x="696" y="1842" as="targetPoint" />
          </mxGeometry>
        </mxCell>
        <mxCell id="o3OVM2CxOp8buC_yMI5R-242" value="Usuario" style="shape=umlLifeline;perimeter=lifelinePerimeter;whiteSpace=wrap;container=1;dropTarget=0;collapsible=0;recursiveResize=0;outlineConnect=0;portConstraint=eastwest;newEdgeStyle={&quot;edgeStyle&quot;:&quot;elbowEdgeStyle&quot;,&quot;elbow&quot;:&quot;vertical&quot;,&quot;curved&quot;:0,&quot;rounded&quot;:0};size=65;" vertex="1" parent="1">
          <mxGeometry x="60" y="1722" width="150" height="250" as="geometry" />
        </mxCell>
        <mxCell id="o3OVM2CxOp8buC_yMI5R-243" value="New Instace -&gt; Bar" style="verticalAlign=bottom;endArrow=block;edgeStyle=elbowEdgeStyle;elbow=vertical;curved=0;rounded=0;fontStyle=2" edge="1" parent="1" source="o3OVM2CxOp8buC_yMI5R-238" target="o3OVM2CxOp8buC_yMI5R-239">
          <mxGeometry relative="1" as="geometry">
            <Array as="points">
              <mxPoint x="820" y="1862" />
            </Array>
            <mxPoint x="700" y="1862" as="sourcePoint" />
            <mxPoint x="1010" y="1862" as="targetPoint" />
          </mxGeometry>
        </mxCell>
        <mxCell id="o3OVM2CxOp8buC_yMI5R-244" value="&lt;h3&gt;- &lt;i&gt;&lt;u&gt;Añadir bar&lt;/u&gt;&lt;/i&gt;&lt;/h3&gt;" style="text;align=center;fontStyle=1;verticalAlign=middle;spacingLeft=3;spacingRight=3;strokeColor=none;rotatable=0;points=[[0,0.5],[1,0.5]];portConstraint=eastwest;html=1;" vertex="1" parent="1">
          <mxGeometry x="40" y="1680" width="120" height="26" as="geometry" />
        </mxCell>
        <mxCell id="o3OVM2CxOp8buC_yMI5R-245" value="Bar creado" style="verticalAlign=bottom;endArrow=block;edgeStyle=elbowEdgeStyle;elbow=vertical;curved=0;rounded=0;dashed=1;dashPattern=2 3;" edge="1" parent="1" source="o3OVM2CxOp8buC_yMI5R-239" target="o3OVM2CxOp8buC_yMI5R-238">
          <mxGeometry relative="1" as="geometry">
            <Array as="points">
              <mxPoint x="800" y="1902" />
            </Array>
            <mxPoint x="980" y="1902" as="sourcePoint" />
            <mxPoint x="700" y="1902" as="targetPoint" />
          </mxGeometry>
        </mxCell>
        <mxCell id="o3OVM2CxOp8buC_yMI5R-246" value="Bar creado" style="verticalAlign=bottom;endArrow=block;edgeStyle=elbowEdgeStyle;elbow=vertical;curved=0;rounded=0;dashed=1;dashPattern=2 3;" edge="1" parent="1" source="o3OVM2CxOp8buC_yMI5R-238" target="o3OVM2CxOp8buC_yMI5R-237">
          <mxGeometry relative="1" as="geometry">
            <Array as="points">
              <mxPoint x="495" y="1922" />
            </Array>
            <mxPoint x="670" y="1922" as="sourcePoint" />
            <mxPoint x="390" y="1922" as="targetPoint" />
          </mxGeometry>
        </mxCell>
        <mxCell id="o3OVM2CxOp8buC_yMI5R-247" value="Bar añadido" style="verticalAlign=bottom;endArrow=block;edgeStyle=elbowEdgeStyle;elbow=vertical;curved=0;rounded=0;dashed=1;dashPattern=2 3;" edge="1" parent="1" source="o3OVM2CxOp8buC_yMI5R-237" target="o3OVM2CxOp8buC_yMI5R-242">
          <mxGeometry relative="1" as="geometry">
            <Array as="points">
              <mxPoint x="225" y="1952" />
            </Array>
            <mxPoint x="400" y="1952" as="sourcePoint" />
            <mxPoint x="120" y="1952" as="targetPoint" />
          </mxGeometry>
        </mxCell>
        <mxCell id="o3OVM2CxOp8buC_yMI5R-248" value="BARteca" style="shape=umlLifeline;perimeter=lifelinePerimeter;whiteSpace=wrap;container=1;dropTarget=0;collapsible=0;recursiveResize=0;outlineConnect=0;portConstraint=eastwest;newEdgeStyle={&quot;edgeStyle&quot;:&quot;elbowEdgeStyle&quot;,&quot;elbow&quot;:&quot;vertical&quot;,&quot;curved&quot;:0,&quot;rounded&quot;:0};size=65;" vertex="1" parent="1">
          <mxGeometry x="310" y="2052" width="150" height="250" as="geometry" />
        </mxCell>
        <mxCell id="o3OVM2CxOp8buC_yMI5R-249" value="API" style="shape=umlLifeline;perimeter=lifelinePerimeter;whiteSpace=wrap;container=1;dropTarget=0;collapsible=0;recursiveResize=0;outlineConnect=0;portConstraint=eastwest;newEdgeStyle={&quot;edgeStyle&quot;:&quot;elbowEdgeStyle&quot;,&quot;elbow&quot;:&quot;vertical&quot;,&quot;curved&quot;:0,&quot;rounded&quot;:0};size=65;" vertex="1" parent="1">
          <mxGeometry x="620" y="2052" width="150" height="250" as="geometry" />
        </mxCell>
        <mxCell id="o3OVM2CxOp8buC_yMI5R-250" value="BBDD" style="shape=umlLifeline;perimeter=lifelinePerimeter;whiteSpace=wrap;container=1;dropTarget=0;collapsible=0;recursiveResize=0;outlineConnect=0;portConstraint=eastwest;newEdgeStyle={&quot;edgeStyle&quot;:&quot;elbowEdgeStyle&quot;,&quot;elbow&quot;:&quot;vertical&quot;,&quot;curved&quot;:0,&quot;rounded&quot;:0};size=65;" vertex="1" parent="1">
          <mxGeometry x="900" y="2052" width="150" height="250" as="geometry" />
        </mxCell>
        <mxCell id="o3OVM2CxOp8buC_yMI5R-251" value="Borrar bar" style="verticalAlign=bottom;endArrow=block;edgeStyle=elbowEdgeStyle;elbow=vertical;curved=0;rounded=0;" edge="1" parent="1" source="o3OVM2CxOp8buC_yMI5R-253" target="o3OVM2CxOp8buC_yMI5R-248">
          <mxGeometry relative="1" as="geometry">
            <Array as="points">
              <mxPoint x="264.5" y="2152" />
            </Array>
            <mxPoint x="130" y="2152" as="sourcePoint" />
            <mxPoint x="390.5" y="2152" as="targetPoint" />
          </mxGeometry>
        </mxCell>
        <mxCell id="o3OVM2CxOp8buC_yMI5R-252" value="Eliminar bar" style="verticalAlign=bottom;endArrow=block;edgeStyle=elbowEdgeStyle;elbow=horizontal;curved=0;rounded=0;" edge="1" parent="1" source="o3OVM2CxOp8buC_yMI5R-248" target="o3OVM2CxOp8buC_yMI5R-249">
          <mxGeometry relative="1" as="geometry">
            <Array as="points">
              <mxPoint x="505" y="2172" />
            </Array>
            <mxPoint x="390" y="2172" as="sourcePoint" />
            <mxPoint x="696" y="2172" as="targetPoint" />
          </mxGeometry>
        </mxCell>
        <mxCell id="o3OVM2CxOp8buC_yMI5R-253" value="Usuario" style="shape=umlLifeline;perimeter=lifelinePerimeter;whiteSpace=wrap;container=1;dropTarget=0;collapsible=0;recursiveResize=0;outlineConnect=0;portConstraint=eastwest;newEdgeStyle={&quot;edgeStyle&quot;:&quot;elbowEdgeStyle&quot;,&quot;elbow&quot;:&quot;vertical&quot;,&quot;curved&quot;:0,&quot;rounded&quot;:0};size=65;" vertex="1" parent="1">
          <mxGeometry x="60" y="2052" width="150" height="250" as="geometry" />
        </mxCell>
        <mxCell id="o3OVM2CxOp8buC_yMI5R-254" value="" style="verticalAlign=bottom;endArrow=block;edgeStyle=elbowEdgeStyle;elbow=vertical;curved=0;rounded=0;fontStyle=0" edge="1" parent="1" source="o3OVM2CxOp8buC_yMI5R-249" target="o3OVM2CxOp8buC_yMI5R-250">
          <mxGeometry relative="1" as="geometry">
            <Array as="points">
              <mxPoint x="820" y="2192" />
            </Array>
            <mxPoint x="700" y="2192" as="sourcePoint" />
            <mxPoint x="1010" y="2192" as="targetPoint" />
          </mxGeometry>
        </mxCell>
        <mxCell id="o3OVM2CxOp8buC_yMI5R-255" value="Eliminar bar" style="edgeLabel;html=1;align=center;verticalAlign=middle;resizable=0;points=[];" vertex="1" connectable="0" parent="o3OVM2CxOp8buC_yMI5R-254">
          <mxGeometry x="-0.4536" y="-1" relative="1" as="geometry">
            <mxPoint x="60" y="-16" as="offset" />
          </mxGeometry>
        </mxCell>
        <mxCell id="o3OVM2CxOp8buC_yMI5R-256" value="Bar eliminado" style="verticalAlign=bottom;endArrow=block;edgeStyle=elbowEdgeStyle;elbow=vertical;curved=0;rounded=0;dashed=1;dashPattern=2 3;" edge="1" parent="1" source="o3OVM2CxOp8buC_yMI5R-250" target="o3OVM2CxOp8buC_yMI5R-249">
          <mxGeometry relative="1" as="geometry">
            <Array as="points">
              <mxPoint x="800" y="2232" />
            </Array>
            <mxPoint x="980" y="2232" as="sourcePoint" />
            <mxPoint x="700" y="2232" as="targetPoint" />
          </mxGeometry>
        </mxCell>
        <mxCell id="o3OVM2CxOp8buC_yMI5R-257" value="Bar eliminado" style="verticalAlign=bottom;endArrow=block;edgeStyle=elbowEdgeStyle;elbow=vertical;curved=0;rounded=0;dashed=1;dashPattern=2 3;" edge="1" parent="1" source="o3OVM2CxOp8buC_yMI5R-249" target="o3OVM2CxOp8buC_yMI5R-248">
          <mxGeometry relative="1" as="geometry">
            <Array as="points">
              <mxPoint x="495" y="2252" />
            </Array>
            <mxPoint x="670" y="2252" as="sourcePoint" />
            <mxPoint x="390" y="2252" as="targetPoint" />
          </mxGeometry>
        </mxCell>
        <mxCell id="o3OVM2CxOp8buC_yMI5R-258" value="Bar borrado" style="verticalAlign=bottom;endArrow=block;edgeStyle=elbowEdgeStyle;elbow=vertical;curved=0;rounded=0;dashed=1;dashPattern=2 3;" edge="1" parent="1" source="o3OVM2CxOp8buC_yMI5R-248" target="o3OVM2CxOp8buC_yMI5R-253">
          <mxGeometry relative="1" as="geometry">
            <Array as="points">
              <mxPoint x="225" y="2282" />
            </Array>
            <mxPoint x="400" y="2282" as="sourcePoint" />
            <mxPoint x="120" y="2282" as="targetPoint" />
          </mxGeometry>
        </mxCell>
        <mxCell id="o3OVM2CxOp8buC_yMI5R-259" value="&lt;h3&gt;- &lt;i&gt;&lt;u&gt;Borrar&amp;nbsp;bar&lt;/u&gt;&lt;/i&gt;&lt;/h3&gt;" style="text;align=center;fontStyle=1;verticalAlign=middle;spacingLeft=3;spacingRight=3;strokeColor=none;rotatable=0;points=[[0,0.5],[1,0.5]];portConstraint=eastwest;html=1;" vertex="1" parent="1">
          <mxGeometry x="40" y="2002" width="120" height="26" as="geometry" />
        </mxCell>
        <mxCell id="o3OVM2CxOp8buC_yMI5R-260" value="BARteca" style="shape=umlLifeline;perimeter=lifelinePerimeter;whiteSpace=wrap;container=1;dropTarget=0;collapsible=0;recursiveResize=0;outlineConnect=0;portConstraint=eastwest;newEdgeStyle={&quot;edgeStyle&quot;:&quot;elbowEdgeStyle&quot;,&quot;elbow&quot;:&quot;vertical&quot;,&quot;curved&quot;:0,&quot;rounded&quot;:0};size=65;" vertex="1" parent="1">
          <mxGeometry x="1530" y="1226" width="150" height="420" as="geometry" />
        </mxCell>
        <mxCell id="o3OVM2CxOp8buC_yMI5R-261" value="API" style="shape=umlLifeline;perimeter=lifelinePerimeter;whiteSpace=wrap;container=1;dropTarget=0;collapsible=0;recursiveResize=0;outlineConnect=0;portConstraint=eastwest;newEdgeStyle={&quot;edgeStyle&quot;:&quot;elbowEdgeStyle&quot;,&quot;elbow&quot;:&quot;vertical&quot;,&quot;curved&quot;:0,&quot;rounded&quot;:0};size=65;" vertex="1" parent="1">
          <mxGeometry x="1840" y="1226" width="150" height="420" as="geometry" />
        </mxCell>
        <mxCell id="o3OVM2CxOp8buC_yMI5R-262" value="BBDD" style="shape=umlLifeline;perimeter=lifelinePerimeter;whiteSpace=wrap;container=1;dropTarget=0;collapsible=0;recursiveResize=0;outlineConnect=0;portConstraint=eastwest;newEdgeStyle={&quot;edgeStyle&quot;:&quot;elbowEdgeStyle&quot;,&quot;elbow&quot;:&quot;vertical&quot;,&quot;curved&quot;:0,&quot;rounded&quot;:0};size=65;" vertex="1" parent="1">
          <mxGeometry x="2120" y="1226" width="150" height="420" as="geometry" />
        </mxCell>
        <mxCell id="o3OVM2CxOp8buC_yMI5R-263" value="Ver listado de reservas" style="verticalAlign=bottom;endArrow=block;edgeStyle=elbowEdgeStyle;elbow=vertical;curved=0;rounded=0;" edge="1" parent="1" source="o3OVM2CxOp8buC_yMI5R-265" target="o3OVM2CxOp8buC_yMI5R-260">
          <mxGeometry relative="1" as="geometry">
            <Array as="points">
              <mxPoint x="1484.5" y="1326" />
            </Array>
            <mxPoint x="1350" y="1326" as="sourcePoint" />
            <mxPoint x="1610.5" y="1326" as="targetPoint" />
          </mxGeometry>
        </mxCell>
        <mxCell id="o3OVM2CxOp8buC_yMI5R-264" value="Pedir listado de reservas" style="verticalAlign=bottom;endArrow=block;edgeStyle=elbowEdgeStyle;elbow=vertical;curved=0;rounded=0;" edge="1" parent="1" source="o3OVM2CxOp8buC_yMI5R-260" target="o3OVM2CxOp8buC_yMI5R-261">
          <mxGeometry relative="1" as="geometry">
            <Array as="points">
              <mxPoint x="1725" y="1346" />
            </Array>
            <mxPoint x="1610" y="1346" as="sourcePoint" />
            <mxPoint x="1916" y="1346" as="targetPoint" />
          </mxGeometry>
        </mxCell>
        <mxCell id="o3OVM2CxOp8buC_yMI5R-265" value="Usuario" style="shape=umlLifeline;perimeter=lifelinePerimeter;whiteSpace=wrap;container=1;dropTarget=0;collapsible=0;recursiveResize=0;outlineConnect=0;portConstraint=eastwest;newEdgeStyle={&quot;edgeStyle&quot;:&quot;elbowEdgeStyle&quot;,&quot;elbow&quot;:&quot;vertical&quot;,&quot;curved&quot;:0,&quot;rounded&quot;:0};size=65;" vertex="1" parent="1">
          <mxGeometry x="1280" y="1226" width="150" height="420" as="geometry" />
        </mxCell>
        <mxCell id="o3OVM2CxOp8buC_yMI5R-266" value="Pedir listado de reservas" style="verticalAlign=bottom;endArrow=block;edgeStyle=elbowEdgeStyle;elbow=vertical;curved=0;rounded=0;" edge="1" parent="1" source="o3OVM2CxOp8buC_yMI5R-261" target="o3OVM2CxOp8buC_yMI5R-262">
          <mxGeometry relative="1" as="geometry">
            <Array as="points">
              <mxPoint x="2040" y="1366" />
            </Array>
            <mxPoint x="1920" y="1366" as="sourcePoint" />
            <mxPoint x="2230" y="1366" as="targetPoint" />
          </mxGeometry>
        </mxCell>
        <mxCell id="o3OVM2CxOp8buC_yMI5R-267" value="Devuelve listado de reservas" style="verticalAlign=bottom;endArrow=block;edgeStyle=elbowEdgeStyle;elbow=vertical;curved=0;rounded=0;dashed=1;dashPattern=2 3;exitX=0.467;exitY=0.5;exitDx=0;exitDy=0;exitPerimeter=0;" edge="1" parent="1" source="o3OVM2CxOp8buC_yMI5R-262" target="o3OVM2CxOp8buC_yMI5R-261">
          <mxGeometry relative="1" as="geometry">
            <Array as="points">
              <mxPoint x="2035" y="1436" />
            </Array>
            <mxPoint x="2226" y="1436" as="sourcePoint" />
            <mxPoint x="1920" y="1436" as="targetPoint" />
          </mxGeometry>
        </mxCell>
        <mxCell id="o3OVM2CxOp8buC_yMI5R-268" value="Devuelve listado de reservas" style="verticalAlign=bottom;endArrow=block;edgeStyle=elbowEdgeStyle;elbow=vertical;curved=0;rounded=0;dashed=1;dashPattern=2 3;" edge="1" parent="1" source="o3OVM2CxOp8buC_yMI5R-261" target="o3OVM2CxOp8buC_yMI5R-260">
          <mxGeometry relative="1" as="geometry">
            <Array as="points">
              <mxPoint x="1750" y="1456" />
            </Array>
            <mxPoint x="1905" y="1456" as="sourcePoint" />
            <mxPoint x="1630" y="1456" as="targetPoint" />
          </mxGeometry>
        </mxCell>
        <mxCell id="o3OVM2CxOp8buC_yMI5R-269" value="&lt;h1&gt;&lt;i&gt;&lt;u&gt;DIAGRAMAS RESERVAS&lt;/u&gt;&lt;/i&gt;&lt;/h1&gt;" style="text;align=center;fontStyle=1;verticalAlign=middle;spacingLeft=3;spacingRight=3;strokeColor=none;rotatable=0;points=[[0,0.5],[1,0.5]];portConstraint=eastwest;html=1;" vertex="1" parent="1">
          <mxGeometry x="1320" y="1136" width="160" height="26" as="geometry" />
        </mxCell>
        <mxCell id="o3OVM2CxOp8buC_yMI5R-270" value="Mostrar lista de reservas" style="verticalAlign=bottom;endArrow=block;edgeStyle=elbowEdgeStyle;elbow=vertical;curved=0;rounded=0;dashed=1;dashPattern=2 3;" edge="1" parent="1" source="o3OVM2CxOp8buC_yMI5R-260" target="o3OVM2CxOp8buC_yMI5R-265">
          <mxGeometry relative="1" as="geometry">
            <Array as="points">
              <mxPoint x="1474.5" y="1496" />
            </Array>
            <mxPoint x="1600.5" y="1496" as="sourcePoint" />
            <mxPoint x="1340" y="1496" as="targetPoint" />
          </mxGeometry>
        </mxCell>
        <mxCell id="o3OVM2CxOp8buC_yMI5R-271" value="BARteca" style="shape=umlLifeline;perimeter=lifelinePerimeter;whiteSpace=wrap;container=1;dropTarget=0;collapsible=0;recursiveResize=0;outlineConnect=0;portConstraint=eastwest;newEdgeStyle={&quot;edgeStyle&quot;:&quot;elbowEdgeStyle&quot;,&quot;elbow&quot;:&quot;vertical&quot;,&quot;curved&quot;:0,&quot;rounded&quot;:0};size=65;" vertex="1" parent="1">
          <mxGeometry x="1530" y="1706" width="150" height="250" as="geometry" />
        </mxCell>
        <mxCell id="o3OVM2CxOp8buC_yMI5R-272" value="API" style="shape=umlLifeline;perimeter=lifelinePerimeter;whiteSpace=wrap;container=1;dropTarget=0;collapsible=0;recursiveResize=0;outlineConnect=0;portConstraint=eastwest;newEdgeStyle={&quot;edgeStyle&quot;:&quot;elbowEdgeStyle&quot;,&quot;elbow&quot;:&quot;vertical&quot;,&quot;curved&quot;:0,&quot;rounded&quot;:0};size=65;" vertex="1" parent="1">
          <mxGeometry x="1840" y="1706" width="150" height="250" as="geometry" />
        </mxCell>
        <mxCell id="o3OVM2CxOp8buC_yMI5R-273" value="BBDD" style="shape=umlLifeline;perimeter=lifelinePerimeter;whiteSpace=wrap;container=1;dropTarget=0;collapsible=0;recursiveResize=0;outlineConnect=0;portConstraint=eastwest;newEdgeStyle={&quot;edgeStyle&quot;:&quot;elbowEdgeStyle&quot;,&quot;elbow&quot;:&quot;vertical&quot;,&quot;curved&quot;:0,&quot;rounded&quot;:0};size=65;" vertex="1" parent="1">
          <mxGeometry x="2120" y="1706" width="150" height="250" as="geometry" />
        </mxCell>
        <mxCell id="o3OVM2CxOp8buC_yMI5R-274" value="Añadir reserva" style="verticalAlign=bottom;endArrow=block;edgeStyle=elbowEdgeStyle;elbow=vertical;curved=0;rounded=0;" edge="1" parent="1" source="o3OVM2CxOp8buC_yMI5R-276" target="o3OVM2CxOp8buC_yMI5R-271">
          <mxGeometry relative="1" as="geometry">
            <Array as="points">
              <mxPoint x="1484.5" y="1806" />
            </Array>
            <mxPoint x="1350" y="1806" as="sourcePoint" />
            <mxPoint x="1610.5" y="1806" as="targetPoint" />
          </mxGeometry>
        </mxCell>
        <mxCell id="o3OVM2CxOp8buC_yMI5R-275" value="Crear reserva" style="verticalAlign=bottom;endArrow=block;edgeStyle=elbowEdgeStyle;elbow=horizontal;curved=0;rounded=0;" edge="1" parent="1" source="o3OVM2CxOp8buC_yMI5R-271" target="o3OVM2CxOp8buC_yMI5R-272">
          <mxGeometry relative="1" as="geometry">
            <Array as="points">
              <mxPoint x="1725" y="1826" />
            </Array>
            <mxPoint x="1610" y="1826" as="sourcePoint" />
            <mxPoint x="1916" y="1826" as="targetPoint" />
          </mxGeometry>
        </mxCell>
        <mxCell id="o3OVM2CxOp8buC_yMI5R-276" value="Usuario" style="shape=umlLifeline;perimeter=lifelinePerimeter;whiteSpace=wrap;container=1;dropTarget=0;collapsible=0;recursiveResize=0;outlineConnect=0;portConstraint=eastwest;newEdgeStyle={&quot;edgeStyle&quot;:&quot;elbowEdgeStyle&quot;,&quot;elbow&quot;:&quot;vertical&quot;,&quot;curved&quot;:0,&quot;rounded&quot;:0};size=65;" vertex="1" parent="1">
          <mxGeometry x="1280" y="1706" width="150" height="250" as="geometry" />
        </mxCell>
        <mxCell id="o3OVM2CxOp8buC_yMI5R-277" value="New Instace -&gt; Reserva" style="verticalAlign=bottom;endArrow=block;edgeStyle=elbowEdgeStyle;elbow=vertical;curved=0;rounded=0;fontStyle=2" edge="1" parent="1" source="o3OVM2CxOp8buC_yMI5R-272" target="o3OVM2CxOp8buC_yMI5R-273">
          <mxGeometry relative="1" as="geometry">
            <Array as="points">
              <mxPoint x="2040" y="1846" />
            </Array>
            <mxPoint x="1920" y="1846" as="sourcePoint" />
            <mxPoint x="2230" y="1846" as="targetPoint" />
            <mxPoint as="offset" />
          </mxGeometry>
        </mxCell>
        <mxCell id="o3OVM2CxOp8buC_yMI5R-278" value="Reserva creado" style="verticalAlign=bottom;endArrow=block;edgeStyle=elbowEdgeStyle;elbow=vertical;curved=0;rounded=0;dashed=1;dashPattern=2 3;" edge="1" parent="1" source="o3OVM2CxOp8buC_yMI5R-273" target="o3OVM2CxOp8buC_yMI5R-272">
          <mxGeometry relative="1" as="geometry">
            <Array as="points">
              <mxPoint x="2020" y="1886" />
            </Array>
            <mxPoint x="2200" y="1886" as="sourcePoint" />
            <mxPoint x="1920" y="1886" as="targetPoint" />
          </mxGeometry>
        </mxCell>
        <mxCell id="o3OVM2CxOp8buC_yMI5R-279" value="Reserva creado" style="verticalAlign=bottom;endArrow=block;edgeStyle=elbowEdgeStyle;elbow=vertical;curved=0;rounded=0;dashed=1;dashPattern=2 3;" edge="1" parent="1" source="o3OVM2CxOp8buC_yMI5R-272" target="o3OVM2CxOp8buC_yMI5R-271">
          <mxGeometry relative="1" as="geometry">
            <Array as="points">
              <mxPoint x="1715" y="1906" />
            </Array>
            <mxPoint x="1890" y="1906" as="sourcePoint" />
            <mxPoint x="1610" y="1906" as="targetPoint" />
          </mxGeometry>
        </mxCell>
        <mxCell id="o3OVM2CxOp8buC_yMI5R-280" value="Reserva añadido" style="verticalAlign=bottom;endArrow=block;edgeStyle=elbowEdgeStyle;elbow=vertical;curved=0;rounded=0;dashed=1;dashPattern=2 3;" edge="1" parent="1" source="o3OVM2CxOp8buC_yMI5R-271" target="o3OVM2CxOp8buC_yMI5R-276">
          <mxGeometry relative="1" as="geometry">
            <Array as="points">
              <mxPoint x="1445" y="1936" />
            </Array>
            <mxPoint x="1620" y="1936" as="sourcePoint" />
            <mxPoint x="1340" y="1936" as="targetPoint" />
          </mxGeometry>
        </mxCell>
        <mxCell id="o3OVM2CxOp8buC_yMI5R-281" value="BARteca" style="shape=umlLifeline;perimeter=lifelinePerimeter;whiteSpace=wrap;container=1;dropTarget=0;collapsible=0;recursiveResize=0;outlineConnect=0;portConstraint=eastwest;newEdgeStyle={&quot;edgeStyle&quot;:&quot;elbowEdgeStyle&quot;,&quot;elbow&quot;:&quot;vertical&quot;,&quot;curved&quot;:0,&quot;rounded&quot;:0};size=65;" vertex="1" parent="1">
          <mxGeometry x="1530" y="2036" width="150" height="250" as="geometry" />
        </mxCell>
        <mxCell id="o3OVM2CxOp8buC_yMI5R-282" value="API" style="shape=umlLifeline;perimeter=lifelinePerimeter;whiteSpace=wrap;container=1;dropTarget=0;collapsible=0;recursiveResize=0;outlineConnect=0;portConstraint=eastwest;newEdgeStyle={&quot;edgeStyle&quot;:&quot;elbowEdgeStyle&quot;,&quot;elbow&quot;:&quot;vertical&quot;,&quot;curved&quot;:0,&quot;rounded&quot;:0};size=65;" vertex="1" parent="1">
          <mxGeometry x="1840" y="2036" width="150" height="250" as="geometry" />
        </mxCell>
        <mxCell id="o3OVM2CxOp8buC_yMI5R-283" value="BBDD" style="shape=umlLifeline;perimeter=lifelinePerimeter;whiteSpace=wrap;container=1;dropTarget=0;collapsible=0;recursiveResize=0;outlineConnect=0;portConstraint=eastwest;newEdgeStyle={&quot;edgeStyle&quot;:&quot;elbowEdgeStyle&quot;,&quot;elbow&quot;:&quot;vertical&quot;,&quot;curved&quot;:0,&quot;rounded&quot;:0};size=65;" vertex="1" parent="1">
          <mxGeometry x="2120" y="2036" width="150" height="250" as="geometry" />
        </mxCell>
        <mxCell id="o3OVM2CxOp8buC_yMI5R-284" value="Borrar Reserva " style="verticalAlign=bottom;endArrow=block;edgeStyle=elbowEdgeStyle;elbow=vertical;curved=0;rounded=0;" edge="1" parent="1" source="o3OVM2CxOp8buC_yMI5R-286" target="o3OVM2CxOp8buC_yMI5R-281">
          <mxGeometry relative="1" as="geometry">
            <Array as="points">
              <mxPoint x="1484.5" y="2136" />
            </Array>
            <mxPoint x="1350" y="2136" as="sourcePoint" />
            <mxPoint x="1610.5" y="2136" as="targetPoint" />
          </mxGeometry>
        </mxCell>
        <mxCell id="o3OVM2CxOp8buC_yMI5R-285" value="Eliminar Reserva " style="verticalAlign=bottom;endArrow=block;edgeStyle=elbowEdgeStyle;elbow=horizontal;curved=0;rounded=0;" edge="1" parent="1" source="o3OVM2CxOp8buC_yMI5R-281" target="o3OVM2CxOp8buC_yMI5R-282">
          <mxGeometry relative="1" as="geometry">
            <Array as="points">
              <mxPoint x="1725" y="2156" />
            </Array>
            <mxPoint x="1610" y="2156" as="sourcePoint" />
            <mxPoint x="1916" y="2156" as="targetPoint" />
          </mxGeometry>
        </mxCell>
        <mxCell id="o3OVM2CxOp8buC_yMI5R-286" value="Usuario" style="shape=umlLifeline;perimeter=lifelinePerimeter;whiteSpace=wrap;container=1;dropTarget=0;collapsible=0;recursiveResize=0;outlineConnect=0;portConstraint=eastwest;newEdgeStyle={&quot;edgeStyle&quot;:&quot;elbowEdgeStyle&quot;,&quot;elbow&quot;:&quot;vertical&quot;,&quot;curved&quot;:0,&quot;rounded&quot;:0};size=65;" vertex="1" parent="1">
          <mxGeometry x="1280" y="2036" width="150" height="250" as="geometry" />
        </mxCell>
        <mxCell id="o3OVM2CxOp8buC_yMI5R-287" value="" style="verticalAlign=bottom;endArrow=block;edgeStyle=elbowEdgeStyle;elbow=vertical;curved=0;rounded=0;fontStyle=0" edge="1" parent="1" source="o3OVM2CxOp8buC_yMI5R-282" target="o3OVM2CxOp8buC_yMI5R-283">
          <mxGeometry relative="1" as="geometry">
            <Array as="points">
              <mxPoint x="2040" y="2176" />
            </Array>
            <mxPoint x="1920" y="2176" as="sourcePoint" />
            <mxPoint x="2230" y="2176" as="targetPoint" />
          </mxGeometry>
        </mxCell>
        <mxCell id="o3OVM2CxOp8buC_yMI5R-288" value="Eliminar Reserva&amp;nbsp;" style="edgeLabel;html=1;align=center;verticalAlign=middle;resizable=0;points=[];" vertex="1" connectable="0" parent="o3OVM2CxOp8buC_yMI5R-287">
          <mxGeometry x="-0.4536" y="-1" relative="1" as="geometry">
            <mxPoint x="60" y="-16" as="offset" />
          </mxGeometry>
        </mxCell>
        <mxCell id="o3OVM2CxOp8buC_yMI5R-289" value="Reserva eliminada" style="verticalAlign=bottom;endArrow=block;edgeStyle=elbowEdgeStyle;elbow=horizontal;curved=0;rounded=0;dashed=1;dashPattern=2 3;" edge="1" parent="1" source="o3OVM2CxOp8buC_yMI5R-283" target="o3OVM2CxOp8buC_yMI5R-282">
          <mxGeometry relative="1" as="geometry">
            <Array as="points">
              <mxPoint x="2020" y="2216" />
            </Array>
            <mxPoint x="2200" y="2216" as="sourcePoint" />
            <mxPoint x="1920" y="2216" as="targetPoint" />
          </mxGeometry>
        </mxCell>
        <mxCell id="o3OVM2CxOp8buC_yMI5R-290" value="Reserva eliminado" style="verticalAlign=bottom;endArrow=block;edgeStyle=elbowEdgeStyle;elbow=vertical;curved=0;rounded=0;dashed=1;dashPattern=2 3;" edge="1" parent="1" source="o3OVM2CxOp8buC_yMI5R-282" target="o3OVM2CxOp8buC_yMI5R-281">
          <mxGeometry relative="1" as="geometry">
            <Array as="points">
              <mxPoint x="1715" y="2236" />
            </Array>
            <mxPoint x="1890" y="2236" as="sourcePoint" />
            <mxPoint x="1610" y="2236" as="targetPoint" />
          </mxGeometry>
        </mxCell>
        <mxCell id="o3OVM2CxOp8buC_yMI5R-291" value="Reserva borrado" style="verticalAlign=bottom;endArrow=block;edgeStyle=elbowEdgeStyle;elbow=vertical;curved=0;rounded=0;dashed=1;dashPattern=2 3;" edge="1" parent="1" source="o3OVM2CxOp8buC_yMI5R-281" target="o3OVM2CxOp8buC_yMI5R-286">
          <mxGeometry relative="1" as="geometry">
            <Array as="points">
              <mxPoint x="1445" y="2266" />
            </Array>
            <mxPoint x="1620" y="2266" as="sourcePoint" />
            <mxPoint x="1340" y="2266" as="targetPoint" />
          </mxGeometry>
        </mxCell>
        <mxCell id="o3OVM2CxOp8buC_yMI5R-292" value="&lt;h3&gt;-&amp;nbsp;&lt;i style=&quot;text-decoration-line: underline;&quot;&gt;Listado de reservas&lt;/i&gt;&lt;/h3&gt;" style="text;align=center;fontStyle=1;verticalAlign=middle;spacingLeft=3;spacingRight=3;strokeColor=none;rotatable=0;points=[[0,0.5],[1,0.5]];portConstraint=eastwest;html=1;" vertex="1" parent="1">
          <mxGeometry x="1260" y="1184" width="160" height="26" as="geometry" />
        </mxCell>
        <mxCell id="o3OVM2CxOp8buC_yMI5R-293" value="&lt;h3&gt;- &lt;i&gt;&lt;u&gt;Añadir reserva&lt;/u&gt;&lt;/i&gt;&lt;/h3&gt;" style="text;align=center;fontStyle=1;verticalAlign=middle;spacingLeft=3;spacingRight=3;strokeColor=none;rotatable=0;points=[[0,0.5],[1,0.5]];portConstraint=eastwest;html=1;" vertex="1" parent="1">
          <mxGeometry x="1260" y="1662" width="120" height="26" as="geometry" />
        </mxCell>
        <mxCell id="o3OVM2CxOp8buC_yMI5R-294" value="&lt;h3&gt;- &lt;i&gt;&lt;u&gt;Borrar reserva&lt;/u&gt;&lt;/i&gt;&lt;/h3&gt;" style="text;align=center;fontStyle=1;verticalAlign=middle;spacingLeft=3;spacingRight=3;strokeColor=none;rotatable=0;points=[[0,0.5],[1,0.5]];portConstraint=eastwest;html=1;" vertex="1" parent="1">
          <mxGeometry x="1260" y="1984" width="120" height="26" as="geometry" />
        </mxCell>
      </root>
    </mxGraphModel>
  </diagram>
</mxfile>
